<?xml version="1.0" encoding="iso-8859-1"?>
<!-- Generator: Adobe Illustrator 19.0.0, SVG Export Plug-In . SVG Version: 6.00 Build 0)  -->
<svg version="1.1" id="Layer_1" xmlns="http://www.w3.org/2000/svg" xmlns:xlink="http://www.w3.org/1999/xlink" x="0px" y="0px"
	 viewBox="0 0 496 496" style="enable-background:new 0 0 496 496;" xml:space="preserve" fill="#f9004d">
<g>
	<g>
		<g>
			<path d="M0,0v400h496V0H0z M480,384H16V16h464V384z"/>
			<path d="M312,32H32v176h280V32z M296,192H48V48h248V192z"/>
			<rect x="328" y="32" width="136" height="16"/>
			<rect x="328" y="64" width="136" height="16"/>
			<rect x="328" y="96" width="136" height="16"/>
			<rect x="328" y="128" width="136" height="16"/>
			<rect x="328" y="160" width="136" height="16"/>
			<rect x="328" y="192" width="136" height="16"/>
			<path d="M168,224H32v144h136V224z M152,352H48V240h104V352z"/>
			<path d="M184,368h128V224H184V368z M200,240h96v112h-96V240z"/>
			<path d="M464,224H328v144h136V224z M448,352H344V240h104V352z"/>
			<path d="M168,176c30.88,0,56-25.12,56-56s-25.12-56-56-56s-56,25.12-56,56S137.12,176,168,176z M168,80c22.056,0,40,17.944,40,40
				c0,22.056-17.944,40-40,40c-22.056,0-40-17.944-40-40C128,97.944,145.944,80,168,80z"/>
			<path d="M456,416H77.872l-70,40l70,40H456c22.056,0,40-17.944,40-40C496,433.944,478.056,416,456,416z M80,478.784L40.128,456
				L80,433.216V478.784z M384,480H96v-48h288V480z M416,480h-16v-48h16V480z M456,480h-24v-48h24c13.232,0,24,10.768,24,24
				S469.232,480,456,480z"/>
		</g>
	</g>
</g>
<g>
</g>
<g>
</g>
<g>
</g>
<g>
</g>
<g>
</g>
<g>
</g>
<g>
</g>
<g>
</g>
<g>
</g>
<g>
</g>
<g>
</g>
<g>
</g>
<g>
</g>
<g>
</g>
<g>
</g>
</svg>
