<?xml version="1.0" encoding="iso-8859-1"?>
<!-- Generator: Adobe Illustrator 16.0.0, SVG Export Plug-In . SVG Version: 6.00 Build 0)  -->
<!DOCTYPE svg PUBLIC "-//W3C//DTD SVG 1.1//EN" "http://www.w3.org/Graphics/SVG/1.1/DTD/svg11.dtd">
<svg version="1.1" id="Capa_1" xmlns="http://www.w3.org/2000/svg" xmlns:xlink="http://www.w3.org/1999/xlink" x="0px" y="0px"
	 width="96.322px" height="96.322px" viewBox="0 0 96.322 96.322" style="enable-background:new 0 0 96.322 96.322;"
	 xml:space="preserve" fill="#f9004d">
<g>
	<g>
		<path d="M48.198,37.121c3.153,0,6.053-1.726,7.56-4.501c0.68-1.25,1.036-2.666,1.036-4.094c0-4.74-3.854-8.597-8.596-8.597
			s-8.597,3.855-8.597,8.597c0,1.585,0.443,3.143,1.281,4.501C42.462,35.591,45.198,37.121,48.198,37.121z M48.198,21.93
			c3.637,0,6.596,2.959,6.596,6.597c0,1.096-0.272,2.183-0.795,3.141c-1.155,2.132-3.379,3.455-5.801,3.455
			c-2.302,0-4.398-1.175-5.612-3.145c-0.645-1.044-0.984-2.236-0.984-3.451C41.6,24.889,44.559,21.93,48.198,21.93z"/>
		<path d="M22.897,56.336l7.416,24.449c0.106,0.354,0.398,0.617,0.759,0.688c0.363,0.072,0.731-0.061,0.968-0.342
			c2.102-2.531,5.027-4.516,8.339-5.676v1.52c0,0.553,0.447,1,1,1H54.94c0.555,0,1-0.447,1-1v-1.207
			c3.313,1.158,6.238,3.145,8.342,5.676c0.191,0.229,0.478,0.359,0.771,0.359c0.063,0,0.133-0.006,0.196-0.021
			c0.359-0.072,0.65-0.336,0.761-0.688l7.416-24.449c0.09-0.297,0.034-0.617-0.146-0.869c-1.354-1.904-2.811-3.637-4.34-5.156
			c0.729-3.435,1.096-6.936,1.096-10.416c0-16.524-8.168-31.873-21.313-40.053c-0.324-0.201-0.731-0.201-1.058,0
			C34.516,8.333,26.349,23.679,26.349,40.205c0,3.38,0.346,6.776,1.028,10.104c-1.527,1.521-2.985,3.252-4.339,5.158
			C22.861,55.72,22.807,56.039,22.897,56.336z M29.163,51.359c0.25-0.24,0.357-0.594,0.284-0.934
			c-0.729-3.36-1.098-6.803-1.098-10.225c0-15.616,7.588-30.122,19.843-38.021c12.258,7.897,19.846,22.404,19.846,38.021
			c0,3.512-0.393,7.044-1.16,10.5c-0.036,0.162-0.021,0.373,0.023,0.533c0.051,0.168,0.143,0.321,0.27,0.442
			c1.474,1.42,2.884,3.053,4.195,4.854L64.601,78.83c-2.515-2.5-5.789-4.387-9.394-5.392c-0.09-0.024-0.18-0.036-0.271-0.036
			c-0.215,0-0.428,0.067-0.604,0.202c-0.25,0.188-0.396,0.483-0.396,0.798v1.565h-11.56v-1.877c0-0.313-0.146-0.606-0.396-0.798
			c-0.249-0.188-0.571-0.25-0.873-0.166c-3.604,1.002-6.878,2.894-9.393,5.392l-6.763-22.297
			C26.273,54.418,27.687,52.781,29.163,51.359z"/>
		<path d="M56.683,65.468c-0.228,0.504-0.002,1.099,0.502,1.321c0.135,0.062,0.271,0.088,0.41,0.088c0.381,0,0.746-0.221,0.912-0.59
			c7.483-16.643,6.42-31.085,6.37-31.691c-0.045-0.55-0.504-0.962-1.075-0.916c-0.554,0.044-0.961,0.525-0.918,1.077
			C62.896,34.897,63.96,49.289,56.683,65.468z"/>
		<path d="M41.036,81.285v7.939c0,0.555,0.447,1,1,1s1-0.445,1-1v-7.939c0-0.551-0.447-1-1-1
			C41.482,80.285,41.036,80.734,41.036,81.285z"/>
		<path d="M47.161,81.285v14.037c0,0.551,0.447,1,1,1s1-0.449,1-1V81.285c0-0.551-0.447-1-1-1S47.161,80.734,47.161,81.285z"/>
		<path d="M54.019,80.285c-0.553,0-1,0.449-1,1v7.939c0,0.555,0.447,1,1,1c0.555,0,1-0.445,1-1v-7.939
			C55.019,80.734,54.573,80.285,54.019,80.285z"/>
	</g>
</g>
<g>
</g>
<g>
</g>
<g>
</g>
<g>
</g>
<g>
</g>
<g>
</g>
<g>
</g>
<g>
</g>
<g>
</g>
<g>
</g>
<g>
</g>
<g>
</g>
<g>
</g>
<g>
</g>
<g>
</g>

</svg>
