<?xml version="1.0" encoding="iso-8859-1"?>
<!-- Generator: Adobe Illustrator 16.0.0, SVG Export Plug-In . SVG Version: 6.00 Build 0)  -->
<!DOCTYPE svg PUBLIC "-//W3C//DTD SVG 1.1//EN" "http://www.w3.org/Graphics/SVG/1.1/DTD/svg11.dtd">
<svg version="1.1" id="Capa_1" xmlns="http://www.w3.org/2000/svg" xmlns:xlink="http://www.w3.org/1999/xlink" x="0px" y="0px"
	 width="567.955px" height="567.955px" viewBox="0 0 567.955 567.955" style="enable-background:new 0 0 567.955 567.955;"
	 xml:space="preserve" fill="#f9004d">
<g>
	<g>
		<path d="M213.449,0.009c-44.303,0-87.784,41.128-87.784,83.041v406.608c0,45.422,60.923,78.297,101.994,78.297h112.618
			c41.07,0,102.014-32.875,102.014-78.297V83.041C442.29,41.138,398.808,0,354.505,0H213.449V0.009z M427.946,83.041v406.608
			c0,35.305-53.045,63.953-87.67,63.953H227.659c-34.606,0-87.65-28.658-87.65-63.953V83.041c0-34.023,37.055-68.697,73.44-68.697
			h141.066C390.872,14.353,427.946,49.017,427.946,83.041z"/>
		<path d="M161.266,100.444v320.058c0,1.979,1.607,3.586,3.586,3.586h234.684c1.979,0,3.586-1.607,3.586-3.586V100.444
			c0-1.979-1.607-3.586-3.586-3.586H164.852C162.863,96.858,161.266,98.456,161.266,100.444z M178,104.03h208.395
			c5.279,0,9.562,4.284,9.562,9.562v293.771c0,5.277-4.283,9.562-9.562,9.562H178c-5.278,0-9.562-4.285-9.562-9.562V113.593
			C168.438,108.305,172.713,104.03,178,104.03z"/>
		<path d="M240.654,474.443c-70.466,3.443-79.598,15.922-80.717,18.389c-0.631,1.406-0.296,3.051,0.823,4.102
			c0.803,0.746,20.225,18.266,79.732,24.031c1.233,0.02,2.094-0.316,2.764-0.908c0.746-0.68,1.176-1.645,1.176-2.658v-39.369
			c0-0.975-0.412-1.922-1.119-2.592C242.595,474.76,241.773,474.357,240.654,474.443z M227.773,512.234
			c-24.795-3.51-40.822-9.123-50.375-13.598c-4.781-2.238-4.619-6.617,0.401-8.242c8.778-2.842,23.973-6.072,49.917-7.986
			c5.269-0.381,9.543,3.672,9.543,8.951v12.498C237.26,509.137,233.004,512.971,227.773,512.234z"/>
		<path d="M322.595,474.395c-1.156-0.104-1.941,0.316-2.648,0.986c-0.707,0.678-1.1,1.615-1.1,2.592v39.502
			c0,1.014,0.43,1.979,1.176,2.658c0.65,0.604,1.512,0.928,2.41,0.928c59.277-5.748,74.463-23.725,75.084-24.49
			c0.584-0.707,0.861-1.615,0.805-2.523C397.948,489.227,389.868,477.656,322.595,474.395z M326.009,503.934v-12.621
			c0-5.279,4.275-9.344,9.543-8.951c24.299,1.816,38.098,4.818,45.871,7.4c5.012,1.664,5.299,6.656,0.633,9.123
			c-8.35,4.408-22.836,9.945-46.561,13.406C330.265,513.047,326.009,509.213,326.009,503.934z"/>
		<path d="M311.351,474.004c-8.76-0.307-18.418-0.469-29.157-0.469c-11.15,0-21.2,0.182-30.371,0.506
			c-1.922,0.068-3.452,1.654-3.452,3.586v40.564c0,1.885,1.454,3.443,3.347,3.576c9.725,0.68,19.985,1.033,30.485,1.033
			c10.108,0,19.948-0.324,29.28-0.965c1.885-0.125,3.348-1.693,3.348-3.578V477.59C314.821,475.658,313.29,474.07,311.351,474.004z
			 M298.097,515.342c-10.835,0.383-22.147,0.373-33-0.037c-5.279-0.201-9.553-4.754-9.553-10.031v-14.611
			c0-5.279,4.284-9.697,9.562-9.793c5.393-0.105,11.083-0.152,17.088-0.152c5.575,0,10.872,0.047,15.893,0.133
			c5.277,0.086,9.562,4.504,9.562,9.783v14.697C307.649,510.609,303.374,515.15,298.097,515.342z"/>
		<path d="M282.194,51.073c30.868,0,46.655-17.05,47.305-17.777c0.918-0.994,1.176-2.419,0.689-3.682
			c-0.488-1.262-1.627-2.151-2.975-2.295c-15.271-1.645-30.867-2.477-46.349-2.477c-26.431,0-43.146,2.4-43.834,2.496
			c-1.33,0.191-2.41,1.09-2.859,2.333c-0.45,1.243-0.191,2.639,0.708,3.615C235.538,34.023,251.335,51.073,282.194,51.073z
			 M308.271,32.895c5.27,0.344,5.996,3.175,1.186,5.345c-6.789,3.06-15.902,5.661-27.253,5.661c-11.446,0-20.617-2.639-27.425-5.738
			c-4.81-2.189-4.073-5.049,1.195-5.383c6.751-0.421,15.186-0.765,24.901-0.765C289.997,32.015,299.157,32.312,308.271,32.895z"/>
	</g>
</g>
<g>
</g>
<g>
</g>
<g>
</g>
<g>
</g>
<g>
</g>
<g>
</g>
<g>
</g>
<g>
</g>
<g>
</g>
<g>
</g>
<g>
</g>
<g>
</g>
<g>
</g>
<g>
</g>
<g>
</g>
</svg>
